<svg width="18" height="18" viewBox="0 0 18 18" fill="none" xmlns="http://www.w3.org/2000/svg">
<path fill-rule="evenodd" clip-rule="evenodd" d="M7 6H5V8H7V6ZM10 6H8V8H10V6ZM11 6H13V8H11V6ZM7 9H5V11H7V9ZM8 9H10V11H8V9ZM13 9H11V11H13V9ZM5 12H7V14H5V12ZM10 12H8V14H10V12Z" fill="white"/>
<path fill-rule="evenodd" clip-rule="evenodd" d="M5 1C5 0.447715 5.44772 0 6 0C6.55228 0 7 0.447715 7 1V2C7 2.55228 6.55228 3 6 3C5.44772 3 5 2.55228 5 2V1ZM4 2C2.89543 2 2 2.89543 2 4V17H16V4C16 2.89543 15.1046 2 14 2C14 3.10457 13.1046 4 12 4C10.8954 4 10 3.10457 10 2H8C8 3.10457 7.10457 4 6 4C4.89543 4 4 3.10457 4 2ZM14 5H4V15H14V5ZM12 0C11.4477 0 11 0.447715 11 1V2C11 2.55228 11.4477 3 12 3C12.5523 3 13 2.55228 13 2V1C13 0.447715 12.5523 0 12 0Z" fill="white"/>
</svg>
