<svg width="15" height="15" viewBox="0 0 15 15" fill="none" xmlns="http://www.w3.org/2000/svg">
<path fill-rule="evenodd" clip-rule="evenodd" d="M1 0C0.447715 0 0 0.447715 0 1V14C0 14.5523 0.447715 15 1 15H14C14.5523 15 15 14.5523 15 14V1C15 0.447715 14.5523 0 14 0H1ZM1 1H14V14H1V1Z" fill="white"/>
<path d="M3.41421 5.77818C3.80473 5.38765 4.4379 5.38765 4.82842 5.77818L6.65685 7.6066L11.0208 3.24264C11.4113 2.85212 12.0445 2.85212 12.435 3.24264L13.1421 3.94975C13.5327 4.34027 13.5327 4.97344 13.1421 5.36396L6.65685 11.8492L2.7071 7.8995C2.31658 7.50897 2.31658 6.87581 2.7071 6.48528L3.41421 5.77818Z" fill="white"/>
</svg>
