<svg width="24" height="24" viewBox="0 0 24 24" fill="none" xmlns="http://www.w3.org/2000/svg">
<path fill-rule="evenodd" clip-rule="evenodd" d="M12 10C10.8953 10 10 10.8953 10 12C10 13.1047 10.8953 14 12 14C13.1047 14 14 13.1047 14 12C14 10.8953 13.1047 10 12 10ZM22.9979 11.9605C22.9976 11.9514 22.9966 11.943 22.9959 11.9342C22.9955 11.9297 22.9948 11.9251 22.9942 11.9209C22.9942 11.9144 22.9928 11.9083 22.9914 11.9021C22.9907 11.8947 22.99 11.8872 22.9887 11.8801C22.988 11.8791 22.988 11.8781 22.988 11.8772C22.9612 11.7132 22.8807 11.5592 22.758 11.4409C22.0561 10.6383 21.2212 9.92396 20.3726 9.27181C18.5446 7.86606 16.4534 6.69045 14.1457 6.21689C12.8113 5.94333 11.4694 5.93198 10.1282 6.16341C8.90833 6.37377 7.73279 6.81167 6.63253 7.35426C4.91012 8.20348 3.33724 9.37391 1.96681 10.6863C1.71314 10.9291 1.46085 11.177 1.23021 11.4409C0.923264 11.7919 0.923264 12.2081 1.23021 12.5595C1.93209 13.362 2.76666 14.0757 3.61566 14.7282C5.44427 16.134 7.53515 17.3092 9.84326 17.7828C11.1773 18.0564 12.5202 18.0684 13.8607 17.8366C15.0802 17.6259 16.2558 17.1883 17.3567 16.6461C19.0791 15.7965 20.6517 14.6264 22.0224 13.314C22.2758 13.0709 22.5281 12.8233 22.7591 12.5595C22.8818 12.4405 22.9622 12.2872 22.989 12.1225C22.989 12.1216 22.9897 12.1206 22.9897 12.1199C22.9911 12.1125 22.9918 12.1054 22.9924 12.0979C22.9938 12.0917 22.9945 12.0853 22.9952 12.0791C22.9959 12.0742 22.9962 12.0703 22.9969 12.0658C22.9976 12.0574 22.9983 12.049 22.999 12.0399C22.9997 12.0266 23 12.0136 23 12.0003C22.9993 11.9864 22.9983 11.9734 22.9979 11.9605ZM12 16C9.791 16 8 14.2093 8 12C8 9.79067 9.79067 8 12 8C14.2093 8 16 9.791 16 12C16 14.2093 14.209 16 12 16Z" fill="white"/>
</svg>
