<svg width="43" height="19" viewBox="0 0 43 19" fill="none" xmlns="http://www.w3.org/2000/svg">
<path fill-rule="evenodd" clip-rule="evenodd" d="M28.4981 9.11162H28.158H22.9955V12.7423H27.4778C26.0738 14.6973 23.4228 15.6922 20.6846 14.5664C19.4638 14.0602 18.4784 13.0914 17.9639 11.8695C16.2896 7.84612 19.1935 3.98852 22.9955 3.98852C23.1699 3.98852 23.3444 3.99724 23.5188 4.0147C23.5362 4.0147 23.5536 4.01688 23.5711 4.01906C23.5885 4.02125 23.606 4.02343 23.6234 4.02343C23.6408 4.02343 23.6561 4.02561 23.6714 4.02779C23.6866 4.02997 23.7019 4.03215 23.7193 4.03215C23.7368 4.03652 23.7542 4.0387 23.7716 4.04088C23.7891 4.04306 23.8065 4.04525 23.824 4.04961C23.8414 4.05397 23.8567 4.05616 23.8719 4.05834C23.8872 4.06052 23.9025 4.0627 23.9199 4.06706C23.9373 4.07143 23.9548 4.07361 23.9722 4.07579C23.9897 4.07797 24.0071 4.08016 24.0245 4.08452C24.0405 4.08852 24.0547 4.09069 24.0679 4.0927C24.0834 4.09508 24.0976 4.09725 24.1117 4.10197C24.1466 4.1107 24.1815 4.11943 24.2164 4.11943C24.2425 4.12816 24.2774 4.13689 24.3036 4.13689C24.3385 4.14561 24.3734 4.15434 24.3995 4.16307C24.4126 4.16743 24.4279 4.1718 24.4431 4.17616C24.4584 4.18052 24.4736 4.18489 24.4867 4.18925C24.5042 4.19361 24.5194 4.19798 24.5347 4.20234C24.5499 4.20671 24.5652 4.21107 24.5826 4.21543C24.5957 4.2198 24.611 4.22416 24.6262 4.22853C24.6415 4.23289 24.6568 4.23725 24.6698 4.24162C24.7047 4.25034 24.7309 4.25907 24.7658 4.27653C24.7788 4.28089 24.7941 4.28525 24.8094 4.28962C24.8246 4.29398 24.8399 4.29835 24.853 4.30271C24.8704 4.30707 24.8857 4.31362 24.9009 4.32017C24.9162 4.32671 24.9315 4.33326 24.9489 4.33762C24.962 4.34198 24.9772 4.34853 24.9925 4.35508C25.0078 4.36162 25.023 4.36817 25.0361 4.37253C25.0535 4.37689 25.0688 4.38344 25.0841 4.38999C25.0993 4.39653 25.1146 4.40308 25.132 4.40744C25.1451 4.41181 25.1604 4.41835 25.1756 4.4249L25.1756 4.4249C25.1909 4.43145 25.2062 4.43799 25.2192 4.44235C25.2323 4.45108 25.2476 4.45763 25.2628 4.46417C25.2781 4.47072 25.2933 4.47726 25.3064 4.48599C25.317 4.48953 25.3276 4.49449 25.3388 4.49973C25.3552 4.50743 25.3729 4.51571 25.3936 4.5209C25.4067 4.52963 25.422 4.53617 25.4372 4.54272C25.4525 4.54926 25.4678 4.55581 25.4808 4.56454C25.4939 4.57327 25.507 4.57981 25.5201 4.58636C25.5332 4.5929 25.5462 4.59945 25.5593 4.60818C25.5855 4.62563 25.6204 4.64309 25.6465 4.65181C25.6596 4.66054 25.6727 4.66709 25.6858 4.67363C25.6988 4.68018 25.7119 4.68673 25.725 4.69545C25.7381 4.70418 25.7533 4.71291 25.7686 4.72164C25.7839 4.73036 25.7991 4.73909 25.8122 4.74782L25.8122 4.74783C25.8384 4.76528 25.8645 4.78273 25.8907 4.79146C26.1785 4.96601 26.4401 5.16674 26.693 5.39366L29.4922 2.5921C29.1434 2.26045 28.7684 1.96371 28.376 1.68443C28.3654 1.67386 28.3517 1.66649 28.3366 1.65844C28.3269 1.6532 28.3165 1.64768 28.3062 1.64079L28.3062 1.64078C28.2452 1.59714 28.1841 1.55351 28.1144 1.5186C28.0899 1.50023 28.0654 1.48616 28.038 1.47036L28.0379 1.47033C28.0262 1.46361 28.014 1.45659 28.001 1.44878C27.9705 1.42696 27.9378 1.40733 27.9051 1.38769C27.8724 1.36805 27.8397 1.34842 27.8092 1.3266C27.7957 1.31987 27.7823 1.31185 27.7684 1.30354C27.7461 1.29027 27.7226 1.27623 27.6958 1.2655C27.6609 1.24805 27.6282 1.22841 27.5955 1.20877C27.5628 1.18914 27.5301 1.1695 27.4952 1.15204L27.3906 1.09968C27.3557 1.08222 27.3208 1.06259 27.2859 1.04295C27.2511 1.02331 27.2162 1.00367 27.1813 0.98622C27.1723 0.98171 27.1639 0.9772 27.1557 0.97284C27.1323 0.960327 27.1112 0.949054 27.0854 0.942582L27.0853 0.942557C27.0069 0.907655 26.9284 0.872753 26.8587 0.83785C26.6581 0.750574 26.475 0.672026 26.2918 0.602205C26.2787 0.597841 26.2635 0.591295 26.2482 0.58475C26.233 0.578204 26.2177 0.571658 26.2046 0.567294C26.1699 0.552392 26.1323 0.540316 26.0935 0.52785C26.0642 0.518414 26.0341 0.508754 26.0041 0.497474L25.8471 0.445108L25.664 0.392742C25.6334 0.384015 25.6051 0.375287 25.5768 0.36656C25.5484 0.357832 25.5201 0.349104 25.4896 0.340377C25.4285 0.322921 25.3675 0.305466 25.3064 0.296739C25.2454 0.279283 25.1843 0.261828 25.1233 0.253101C25.0708 0.23809 25.0183 0.229534 24.9714 0.221881L24.9489 0.21819C24.8946 0.202652 24.8333 0.19403 24.7775 0.186167L24.7774 0.186165L24.757 0.18328C24.696 0.174552 24.6437 0.165825 24.5826 0.148369C24.5478 0.144006 24.5151 0.13746 24.4824 0.130914C24.4497 0.124368 24.417 0.117823 24.3821 0.113459C24.3516 0.109095 24.3232 0.104731 24.2949 0.100367C24.2665 0.0960037 24.2382 0.0916399 24.2077 0.0872761C24.1379 0.0785485 24.0681 0.0698209 24.0071 0.0610932C23.9766 0.0567294 23.9482 0.0545475 23.9199 0.0523656C23.8916 0.0501837 23.8632 0.0480018 23.8327 0.043638C23.7978 0.0392742 23.7629 0.0370923 23.728 0.0349104C23.6932 0.0327285 23.6583 0.0305466 23.6234 0.0261828C23.606 0.0261828 23.5885 0.0240014 23.5711 0.0218197L23.5711 0.021819C23.5536 0.0196371 23.5362 0.0174552 23.5188 0.0174552L23.4299 0.0135175C23.268 0.00628269 23.1274 0 22.9868 0C16.621 0 11.7114 6.28388 14.1357 13.0041C15.0513 15.5526 17.1006 17.5338 19.6556 18.4153C25.1146 20.283 30.2509 17.3243 31.9077 12.7074C32.1972 11.9033 32.1984 11.478 32.2004 10.7378V10.7378C32.2008 10.5862 32.2013 10.4214 32.2042 10.2375V9.59164V9.11162L28.4981 9.11162ZM33.7216 12.7249L33.3466 0.0261828H37.3143L36.9481 12.7249H33.7216ZM37.3143 17.0188C37.3143 18.113 36.4281 19 35.3348 19C34.2416 19 33.3553 18.113 33.3553 17.0188C33.3553 15.9247 34.2416 15.0377 35.3348 15.0377C36.4281 15.0377 37.3143 15.9247 37.3143 17.0188ZM39.041 0.0261828L39.4072 12.7249H42.6337L43 0.0261828H39.041ZM43 17.0188C43 18.113 42.1137 19 41.0205 19C39.9272 19 39.041 18.113 39.041 17.0188C39.041 15.9247 39.9272 15.0377 41.0205 15.0377C42.1137 15.0377 43 15.9247 43 17.0188ZM11.6504 9.84474H12.1474H12.6445V10.3422V10.5168V10.8833V12.6725V13.17C12.6445 16.373 10.0284 19 6.81931 19H6.32225C2.84283 19 0 16.1548 0 12.6725V8.83234C0 5.35875 2.84283 2.50482 6.32225 2.50482C6.37513 2.50482 6.42612 2.50672 6.48052 2.50875C6.54274 2.51107 6.60941 2.51355 6.6885 2.51355C6.70594 2.51355 6.72338 2.51573 6.74082 2.51791C6.75826 2.5201 6.7757 2.52228 6.79315 2.52228C6.83116 2.52651 6.86713 2.52869 6.90205 2.5308C6.93921 2.53305 6.97518 2.53523 7.01115 2.53973C7.03295 2.5441 7.05476 2.54628 7.07656 2.54846C7.09836 2.55064 7.12016 2.55282 7.14196 2.55719C7.21172 2.56592 7.27276 2.57464 7.33381 2.58337L7.46461 2.60955C7.48748 2.61337 7.51203 2.61885 7.5375 2.62455C7.57031 2.63188 7.60466 2.63955 7.63902 2.64446C7.67651 2.65947 7.72045 2.66803 7.75976 2.67568C7.76616 2.67693 7.77244 2.67815 7.77854 2.67938C7.8047 2.6881 7.83305 2.69465 7.86139 2.70119C7.88973 2.70774 7.91807 2.71429 7.94423 2.72301C7.95034 2.72424 7.95661 2.72546 7.96302 2.7267C8.00232 2.73436 8.04626 2.74291 8.08376 2.75792C8.14479 2.77538 8.1971 2.79283 8.24941 2.81028L8.24944 2.81029C8.29304 2.81902 8.34537 2.83647 8.38897 2.85393L8.54593 2.90629C8.59825 2.92375 8.64184 2.9412 8.68544 2.95865L8.68546 2.95866C8.71162 2.96739 8.7356 2.9783 8.75958 2.98921C8.78356 3.00011 8.80754 3.01102 8.8337 3.01975C8.85551 3.02848 8.87731 3.03939 8.89911 3.0503C8.92091 3.06121 8.94271 3.07212 8.96451 3.08085C8.99067 3.09394 9.01465 3.10485 9.03863 3.11575C9.06261 3.12666 9.08659 3.13757 9.11276 3.15067C9.13456 3.16376 9.15636 3.17467 9.17816 3.18558C9.19996 3.19649 9.22176 3.2074 9.24356 3.22049C9.26536 3.23358 9.28934 3.24667 9.31332 3.25976C9.33731 3.27285 9.36129 3.28594 9.38309 3.29904C9.40489 3.31213 9.42669 3.32304 9.44849 3.33395C9.47029 3.34486 9.49209 3.35576 9.51389 3.36886C9.53569 3.38195 9.55967 3.39722 9.58365 3.41249C9.60764 3.42777 9.63162 3.44304 9.65342 3.45613L9.66214 3.46486C9.74062 3.5085 9.81038 3.55214 9.88015 3.6045L9.88887 3.61323C9.90631 3.62632 9.92593 3.63941 9.94555 3.6525C9.96517 3.6656 9.98479 3.67869 10.0022 3.69178C10.0458 3.71796 10.0894 3.75286 10.133 3.78777L10.133 3.78778C10.1505 3.80087 10.1701 3.81615 10.1897 3.83142C10.2093 3.84669 10.229 3.86197 10.2464 3.87506C10.2813 3.90997 10.3249 3.94488 10.3685 3.97979C10.4034 4.00597 10.4382 4.03215 10.4731 4.06706L10.4731 4.06707C10.5167 4.11071 10.5516 4.14562 10.5952 4.18052C10.6214 4.19798 10.6388 4.21543 10.665 4.24162L10.8219 4.39871L10.8743 4.45108C10.8917 4.46853 10.907 4.48599 10.9222 4.50345C10.9375 4.5209 10.9527 4.53836 10.9702 4.55581C11.0748 4.66927 11.1795 4.79146 11.2667 4.92237L10.9527 5.23656L9.37437 6.81626L8.97323 7.21773C8.85987 7.03445 8.72034 6.8599 8.57209 6.7028L8.51977 6.65044C8.49361 6.62425 8.46745 6.60025 8.44129 6.57625C8.41513 6.55225 8.38897 6.52825 8.36281 6.50207C7.95295 6.15296 7.46461 5.89986 6.92395 5.79513C6.91523 5.7864 6.90651 5.7864 6.89779 5.7864C6.88035 5.78204 6.86509 5.77986 6.84983 5.77768C6.83457 5.77549 6.81931 5.77331 6.80187 5.76895C6.79315 5.76895 6.78442 5.76677 6.7757 5.76458C6.76698 5.7624 6.75826 5.76022 6.74954 5.76022C6.61002 5.74277 6.46177 5.73404 6.32225 5.73404C4.62178 5.73404 3.22653 7.13045 3.22653 8.82361V12.6638C3.22653 14.3656 4.62178 15.7621 6.32225 15.7621C7.21172 15.7621 8.02271 15.378 8.58954 14.7671C8.62442 14.7322 8.6593 14.6973 8.68546 14.6624L8.69418 14.6537C8.72906 14.6187 8.75521 14.5838 8.78137 14.5489L8.78138 14.5489L8.7901 14.5402C8.80318 14.5227 8.81626 14.5031 8.82934 14.4835C8.84243 14.4638 8.85551 14.4442 8.86859 14.4267V14.418C8.94707 14.2958 9.02555 14.1736 9.08659 14.0427C9.08659 14.034 9.08659 14.0253 9.09531 14.0165C9.10404 13.9904 9.12148 13.9554 9.13892 13.9205C9.14328 13.9118 9.14546 13.9053 9.14764 13.8987C9.14982 13.8922 9.152 13.8856 9.15636 13.8769C9.16072 13.8638 9.16726 13.8485 9.1738 13.8333C9.18034 13.818 9.18688 13.8027 9.19124 13.7896C9.1956 13.7809 9.19778 13.7743 9.19996 13.7678C9.20214 13.7613 9.20432 13.7547 9.20868 13.746C9.22276 13.7248 9.23116 13.698 9.23846 13.6747C9.2402 13.6691 9.24188 13.6637 9.24356 13.6587C9.24846 13.6538 9.2506 13.6462 9.25309 13.6373C9.25503 13.6304 9.25718 13.6227 9.261 13.6151C9.26536 13.5976 9.26972 13.5823 9.27408 13.5671C9.27844 13.5518 9.2828 13.5365 9.28716 13.5191C9.29588 13.5103 9.3046 13.4929 9.3046 13.4754L9.33076 13.3707C9.33076 13.3663 9.33294 13.3598 9.33512 13.3532C9.33731 13.3467 9.33949 13.3401 9.33949 13.3358C9.33949 13.3271 9.34167 13.3161 9.34385 13.3052C9.34603 13.2943 9.34821 13.2834 9.34821 13.2747C9.36565 13.1787 9.38309 13.0827 9.39181 12.978C9.39254 12.9706 9.39327 12.9634 9.394 12.9561C9.40193 12.8774 9.40925 12.8048 9.40925 12.7249H8.85987H8.232H6.81931H6.32225V12.2274V10.3422V9.84474H6.81931H8.232H9.41797H9.91503H10.9789H11.6504Z" fill="white"/>
</svg>
