<svg width="15" height="15" viewBox="0 0 15 15" fill="none" xmlns="http://www.w3.org/2000/svg">
<path fill-rule="evenodd" clip-rule="evenodd" d="M10.8907 9.47653C11.5892 8.49572 12 7.29583 12 6C12 2.68629 9.31371 0 6 0C2.68629 0 0 2.68629 0 6C0 9.31371 2.68629 12 6 12C7.29583 12 8.49571 11.5892 9.47653 10.8907L13.2924 14.7066C13.6829 15.0971 14.3161 15.0971 14.7066 14.7066C15.0971 14.3161 15.0971 13.6829 14.7066 13.2924L10.8907 9.47653ZM6 10C8.20914 10 10 8.20914 10 6C10 3.79086 8.20914 2 6 2C3.79086 2 2 3.79086 2 6C2 8.20914 3.79086 10 6 10Z" fill="white"/>
</svg>
