<svg width="24" height="24" viewBox="0 0 24 24" fill="none" xmlns="http://www.w3.org/2000/svg">
<path fill-rule="evenodd" clip-rule="evenodd" d="M6.15385 5C5.51659 5 5 5.51659 5 6.15385V7H18V6.15385C18 5.51659 17.4834 5 16.8462 5H13C13 4.44772 12.5523 4 12 4H11C10.4477 4 10 4.44772 10 5H6.15385ZM6.00011 7.99998H17.0001V17.6923C17.0001 18.9668 15.9669 20 14.6924 20H8.3078C7.0333 20 6.00011 18.9668 6.00011 17.6923V7.99998ZM8.00004 9.99998H9.00004V18H8.00004V9.99998ZM12 9.99998H11V18H12V9.99998ZM14 9.99998H15V18H14V9.99998Z" fill="white"/>
</svg>
